<mxfile host="app.diagrams.net" modified="2022-04-16T19:40:01.359Z" agent="5.0 (Windows NT 10.0; Win64; x64) AppleWebKit/537.36 (KHTML, like Gecko) Chrome/100.0.4896.88 Safari/537.36" etag="_N44QCD-LKvc920C4h0c" version="15.9.1" type="github">
  <diagram id="EOC5MGwxtxYlhKLxjFDj" name="Page-1">
    <mxGraphModel dx="1038" dy="547" grid="1" gridSize="10" guides="1" tooltips="1" connect="1" arrows="1" fold="1" page="1" pageScale="1" pageWidth="850" pageHeight="1100" math="0" shadow="0">
      <root>
        <mxCell id="0" />
        <mxCell id="1" parent="0" />
        <mxCell id="Dr_HyWPdkFYhXeKrOMwm-2" value="" style="endArrow=classic;html=1;rounded=0;entryX=0.5;entryY=0;entryDx=0;entryDy=0;" parent="1" target="Dr_HyWPdkFYhXeKrOMwm-5" edge="1">
          <mxGeometry width="50" height="50" relative="1" as="geometry">
            <mxPoint x="380" y="120" as="sourcePoint" />
            <mxPoint x="530" y="160" as="targetPoint" />
          </mxGeometry>
        </mxCell>
        <mxCell id="Dr_HyWPdkFYhXeKrOMwm-5" value="1" style="whiteSpace=wrap;html=1;aspect=fixed;" parent="1" vertex="1">
          <mxGeometry x="360" y="240" width="40" height="40" as="geometry" />
        </mxCell>
        <mxCell id="Dr_HyWPdkFYhXeKrOMwm-7" value="2" style="whiteSpace=wrap;html=1;aspect=fixed;" parent="1" vertex="1">
          <mxGeometry x="515" y="605" width="40" height="40" as="geometry" />
        </mxCell>
        <mxCell id="Dr_HyWPdkFYhXeKrOMwm-19" value="3" style="whiteSpace=wrap;html=1;aspect=fixed;" parent="1" vertex="1">
          <mxGeometry x="220" y="605" width="40" height="40" as="geometry" />
        </mxCell>
        <mxCell id="Dr_HyWPdkFYhXeKrOMwm-22" value="0 ppm" style="text;html=1;strokeColor=none;fillColor=none;align=center;verticalAlign=middle;whiteSpace=wrap;rounded=0;" parent="1" vertex="1">
          <mxGeometry x="375" y="160" width="60" height="30" as="geometry" />
        </mxCell>
        <mxCell id="Dr_HyWPdkFYhXeKrOMwm-25" value="40 t/h" style="text;html=1;strokeColor=none;fillColor=none;align=center;verticalAlign=middle;whiteSpace=wrap;rounded=0;" parent="1" vertex="1">
          <mxGeometry x="330" y="160" width="60" height="30" as="geometry" />
        </mxCell>
        <mxCell id="Dr_HyWPdkFYhXeKrOMwm-28" value="150 ppm" style="text;html=1;strokeColor=none;fillColor=none;align=center;verticalAlign=middle;whiteSpace=wrap;rounded=0;" parent="1" vertex="1">
          <mxGeometry x="375" y="310" width="60" height="30" as="geometry" />
        </mxCell>
        <mxCell id="Dr_HyWPdkFYhXeKrOMwm-37" value="800 ppm" style="text;html=1;strokeColor=none;fillColor=none;align=center;verticalAlign=middle;whiteSpace=wrap;rounded=0;" parent="1" vertex="1">
          <mxGeometry x="540" y="650" width="60" height="30" as="geometry" />
        </mxCell>
        <mxCell id="Q1qIIHX5elsPKl9inKbx-3" value="" style="endArrow=classic;html=1;rounded=0;exitX=0.5;exitY=1;exitDx=0;exitDy=0;entryX=0.5;entryY=0;entryDx=0;entryDy=0;" parent="1" source="Dr_HyWPdkFYhXeKrOMwm-7" target="u_EdmEeoJOfr7nmIcmT_-3" edge="1">
          <mxGeometry width="50" height="50" relative="1" as="geometry">
            <mxPoint x="550" y="674.5" as="sourcePoint" />
            <mxPoint x="660" y="674.5" as="targetPoint" />
            <Array as="points" />
          </mxGeometry>
        </mxCell>
        <mxCell id="u_EdmEeoJOfr7nmIcmT_-3" value="D" style="ellipse;whiteSpace=wrap;html=1;aspect=fixed;" parent="1" vertex="1">
          <mxGeometry x="515" y="720" width="40" height="40" as="geometry" />
        </mxCell>
        <mxCell id="u_EdmEeoJOfr7nmIcmT_-4" value="" style="endArrow=classic;html=1;rounded=0;exitX=1;exitY=0.5;exitDx=0;exitDy=0;entryX=1;entryY=0.5;entryDx=0;entryDy=0;" parent="1" source="u_EdmEeoJOfr7nmIcmT_-3" edge="1" target="4H8n3PmT5VChK3W2FfYA-3">
          <mxGeometry width="50" height="50" relative="1" as="geometry">
            <mxPoint x="580" y="719.5" as="sourcePoint" />
            <mxPoint x="660" y="740" as="targetPoint" />
            <Array as="points">
              <mxPoint x="640" y="740" />
              <mxPoint x="640" y="380" />
            </Array>
          </mxGeometry>
        </mxCell>
        <mxCell id="u_EdmEeoJOfr7nmIcmT_-6" value="" style="endArrow=classic;html=1;rounded=0;exitX=0.5;exitY=1;exitDx=0;exitDy=0;" parent="1" source="u_EdmEeoJOfr7nmIcmT_-3" edge="1">
          <mxGeometry width="50" height="50" relative="1" as="geometry">
            <mxPoint x="550" y="810" as="sourcePoint" />
            <mxPoint x="535" y="810" as="targetPoint" />
          </mxGeometry>
        </mxCell>
        <mxCell id="u_EdmEeoJOfr7nmIcmT_-11" value="D" style="ellipse;whiteSpace=wrap;html=1;aspect=fixed;" parent="1" vertex="1">
          <mxGeometry x="360" y="605" width="40" height="40" as="geometry" />
        </mxCell>
        <mxCell id="u_EdmEeoJOfr7nmIcmT_-24" value="20 t/h" style="text;html=1;strokeColor=none;fillColor=none;align=center;verticalAlign=middle;whiteSpace=wrap;rounded=0;" parent="1" vertex="1">
          <mxGeometry x="480" y="650" width="60" height="30" as="geometry" />
        </mxCell>
        <mxCell id="u_EdmEeoJOfr7nmIcmT_-25" value="800 ppm" style="text;html=1;strokeColor=none;fillColor=none;align=center;verticalAlign=middle;whiteSpace=wrap;rounded=0;" parent="1" vertex="1">
          <mxGeometry x="495" y="380" width="60" height="30" as="geometry" />
        </mxCell>
        <mxCell id="u_EdmEeoJOfr7nmIcmT_-26" value="800 ppm" style="text;html=1;strokeColor=none;fillColor=none;align=center;verticalAlign=middle;whiteSpace=wrap;rounded=0;" parent="1" vertex="1">
          <mxGeometry x="540" y="760" width="60" height="30" as="geometry" />
        </mxCell>
        <mxCell id="u_EdmEeoJOfr7nmIcmT_-27" value="15,88 t/h" style="text;html=1;strokeColor=none;fillColor=none;align=center;verticalAlign=middle;whiteSpace=wrap;rounded=0;" parent="1" vertex="1">
          <mxGeometry x="480" y="760" width="60" height="30" as="geometry" />
        </mxCell>
        <mxCell id="u_EdmEeoJOfr7nmIcmT_-30" value="1000 ppm" style="text;html=1;strokeColor=none;fillColor=none;align=center;verticalAlign=middle;whiteSpace=wrap;rounded=0;" parent="1" vertex="1">
          <mxGeometry x="240" y="670" width="60" height="30" as="geometry" />
        </mxCell>
        <mxCell id="u_EdmEeoJOfr7nmIcmT_-31" value="4,12 t/h" style="text;html=1;strokeColor=none;fillColor=none;align=center;verticalAlign=middle;whiteSpace=wrap;rounded=0;" parent="1" vertex="1">
          <mxGeometry x="495" y="350" width="60" height="30" as="geometry" />
        </mxCell>
        <mxCell id="4H8n3PmT5VChK3W2FfYA-1" value="" style="endArrow=classic;html=1;rounded=0;exitX=0.5;exitY=1;exitDx=0;exitDy=0;exitPerimeter=0;entryX=0.5;entryY=0;entryDx=0;entryDy=0;" edge="1" parent="1" source="Dr_HyWPdkFYhXeKrOMwm-5" target="4H8n3PmT5VChK3W2FfYA-3">
          <mxGeometry width="50" height="50" relative="1" as="geometry">
            <mxPoint x="380" y="290" as="sourcePoint" />
            <mxPoint x="380" y="370" as="targetPoint" />
          </mxGeometry>
        </mxCell>
        <mxCell id="4H8n3PmT5VChK3W2FfYA-2" value="40 t/h" style="text;html=1;strokeColor=none;fillColor=none;align=center;verticalAlign=middle;whiteSpace=wrap;rounded=0;" vertex="1" parent="1">
          <mxGeometry x="330" y="300" width="60" height="30" as="geometry" />
        </mxCell>
        <mxCell id="4H8n3PmT5VChK3W2FfYA-3" value="M" style="ellipse;whiteSpace=wrap;html=1;aspect=fixed;" vertex="1" parent="1">
          <mxGeometry x="360" y="360" width="40" height="40" as="geometry" />
        </mxCell>
        <mxCell id="4H8n3PmT5VChK3W2FfYA-5" value="" style="endArrow=classic;html=1;rounded=0;exitX=0.5;exitY=1;exitDx=0;exitDy=0;entryX=0.5;entryY=0;entryDx=0;entryDy=0;" edge="1" parent="1" source="4H8n3PmT5VChK3W2FfYA-3" target="4H8n3PmT5VChK3W2FfYA-6">
          <mxGeometry width="50" height="50" relative="1" as="geometry">
            <mxPoint x="400" y="410" as="sourcePoint" />
            <mxPoint x="380" y="470" as="targetPoint" />
          </mxGeometry>
        </mxCell>
        <mxCell id="4H8n3PmT5VChK3W2FfYA-6" value="R" style="whiteSpace=wrap;html=1;aspect=fixed;" vertex="1" parent="1">
          <mxGeometry x="360" y="480" width="40" height="40" as="geometry" />
        </mxCell>
        <mxCell id="4H8n3PmT5VChK3W2FfYA-7" value="" style="endArrow=classic;html=1;rounded=0;exitX=0.5;exitY=1;exitDx=0;exitDy=0;entryX=0.5;entryY=0;entryDx=0;entryDy=0;" edge="1" parent="1" source="4H8n3PmT5VChK3W2FfYA-6" target="u_EdmEeoJOfr7nmIcmT_-11">
          <mxGeometry width="50" height="50" relative="1" as="geometry">
            <mxPoint x="400" y="610" as="sourcePoint" />
            <mxPoint x="450" y="560" as="targetPoint" />
          </mxGeometry>
        </mxCell>
        <mxCell id="4H8n3PmT5VChK3W2FfYA-8" value="" style="endArrow=classic;html=1;rounded=0;exitX=1;exitY=0.5;exitDx=0;exitDy=0;entryX=0;entryY=0.5;entryDx=0;entryDy=0;" edge="1" parent="1" source="u_EdmEeoJOfr7nmIcmT_-11" target="Dr_HyWPdkFYhXeKrOMwm-7">
          <mxGeometry width="50" height="50" relative="1" as="geometry">
            <mxPoint x="435" y="655" as="sourcePoint" />
            <mxPoint x="485" y="605" as="targetPoint" />
          </mxGeometry>
        </mxCell>
        <mxCell id="4H8n3PmT5VChK3W2FfYA-9" value="" style="endArrow=classic;html=1;rounded=0;exitX=0;exitY=0.5;exitDx=0;exitDy=0;entryX=1;entryY=0.5;entryDx=0;entryDy=0;" edge="1" parent="1" source="u_EdmEeoJOfr7nmIcmT_-11" target="Dr_HyWPdkFYhXeKrOMwm-19">
          <mxGeometry width="50" height="50" relative="1" as="geometry">
            <mxPoint x="220" y="655" as="sourcePoint" />
            <mxPoint x="260" y="625" as="targetPoint" />
          </mxGeometry>
        </mxCell>
        <mxCell id="4H8n3PmT5VChK3W2FfYA-10" value="" style="endArrow=classic;html=1;rounded=0;exitX=0.5;exitY=1;exitDx=0;exitDy=0;" edge="1" parent="1" source="Dr_HyWPdkFYhXeKrOMwm-19">
          <mxGeometry width="50" height="50" relative="1" as="geometry">
            <mxPoint x="240" y="690" as="sourcePoint" />
            <mxPoint x="240" y="720" as="targetPoint" />
          </mxGeometry>
        </mxCell>
        <mxCell id="4H8n3PmT5VChK3W2FfYA-11" value="44,12 t/h" style="text;html=1;strokeColor=none;fillColor=none;align=center;verticalAlign=middle;whiteSpace=wrap;rounded=0;" vertex="1" parent="1">
          <mxGeometry x="320" y="420" width="60" height="30" as="geometry" />
        </mxCell>
        <mxCell id="4H8n3PmT5VChK3W2FfYA-12" value="210,7 ppm" style="text;html=1;strokeColor=none;fillColor=none;align=center;verticalAlign=middle;whiteSpace=wrap;rounded=0;" vertex="1" parent="1">
          <mxGeometry x="380" y="420" width="60" height="30" as="geometry" />
        </mxCell>
        <mxCell id="4H8n3PmT5VChK3W2FfYA-13" value="44,12 t/h" style="text;html=1;strokeColor=none;fillColor=none;align=center;verticalAlign=middle;whiteSpace=wrap;rounded=0;" vertex="1" parent="1">
          <mxGeometry x="320" y="535" width="60" height="30" as="geometry" />
        </mxCell>
        <mxCell id="4H8n3PmT5VChK3W2FfYA-14" value="5 ppm" style="text;html=1;strokeColor=none;fillColor=none;align=center;verticalAlign=middle;whiteSpace=wrap;rounded=0;" vertex="1" parent="1">
          <mxGeometry x="375" y="535" width="60" height="30" as="geometry" />
        </mxCell>
        <mxCell id="4H8n3PmT5VChK3W2FfYA-15" value="20 t/h" style="text;html=1;strokeColor=none;fillColor=none;align=center;verticalAlign=middle;whiteSpace=wrap;rounded=0;" vertex="1" parent="1">
          <mxGeometry x="420" y="600" width="60" height="30" as="geometry" />
        </mxCell>
        <mxCell id="4H8n3PmT5VChK3W2FfYA-16" value="5 ppm" style="text;html=1;strokeColor=none;fillColor=none;align=center;verticalAlign=middle;whiteSpace=wrap;rounded=0;" vertex="1" parent="1">
          <mxGeometry x="420" y="620" width="60" height="30" as="geometry" />
        </mxCell>
        <mxCell id="4H8n3PmT5VChK3W2FfYA-17" value="5 ppm" style="text;html=1;strokeColor=none;fillColor=none;align=center;verticalAlign=middle;whiteSpace=wrap;rounded=0;" vertex="1" parent="1">
          <mxGeometry x="290" y="620" width="60" height="30" as="geometry" />
        </mxCell>
        <mxCell id="4H8n3PmT5VChK3W2FfYA-18" value="24,12 t/h" style="text;html=1;strokeColor=none;fillColor=none;align=center;verticalAlign=middle;whiteSpace=wrap;rounded=0;" vertex="1" parent="1">
          <mxGeometry x="290" y="600" width="60" height="30" as="geometry" />
        </mxCell>
        <mxCell id="4H8n3PmT5VChK3W2FfYA-19" value="24,12 t/h" style="text;html=1;strokeColor=none;fillColor=none;align=center;verticalAlign=middle;whiteSpace=wrap;rounded=0;" vertex="1" parent="1">
          <mxGeometry x="180" y="660" width="60" height="30" as="geometry" />
        </mxCell>
      </root>
    </mxGraphModel>
  </diagram>
</mxfile>
